Coordinates
version=1
nRows=30
nColumns=19
inDegrees=yes

Units are S.I. units (second, meters, Newtons, ...)
If the header above contains a line with 'inDegrees', this indicates whether rotational values are in degrees (yes) or radians (no).

endheader
time	pelvis_tilt	pelvis_list	pelvis_rotation	pelvis_tx	pelvis_ty	pelvis_tz	hip_flexion_r	hip_adduction_r	hip_rotation_r	knee_angle_r	knee_angle_r_beta	ankle_angle_r	hip_flexion_l	hip_adduction_l	hip_rotation_l	knee_angle_l	knee_angle_l_beta	ankle_angle_l
     14.97333333	     -3.39447117	     -9.05001898	     -1.03452566	      2.36531385	      0.93013569	      0.98617584	     28.74397627	     12.22807637	    -18.09217169	      7.72610826	      0.13484603	      6.44552613	    -22.41582003	    -14.37886079	    -15.11000547	     67.34637547	      1.17541599	    -12.91238884
     14.98000000	     -2.51474499	     -9.61723899	     -1.02063654	      2.36449098	      0.92705111	      0.98645708	     27.73178367	     12.64124388	    -19.14273947	      9.79091746	      0.17088375	      6.42417733	    -21.79505898	    -14.96118110	    -13.99267627	     71.73308365	      1.25197849	    -12.46581005
     14.98666667	     -1.89715402	    -10.20508594	     -1.10056357	      2.36351469	      0.92323027	      0.98659514	     27.14235798	     12.96026734	    -20.21887151	     12.48718923	      0.21794257	      6.31606675	    -20.80927754	    -15.56055848	    -13.01923029	     76.09917223	      1.32818111	    -11.91493862
     14.99333333	     -0.87186103	    -11.10479795	     -1.21316502	      2.36256077	      0.91935666	      0.98662021	     26.09835765	     13.56675240	    -21.22947617	     15.40170562	      0.26881047	      6.26305190	    -20.33621479	    -16.53765846	    -12.46159788	     80.28977449	      1.40132092	    -11.32433563
     15.00000000	     -0.02361266	    -12.00438391	     -1.50129843	      2.36133502	      0.91508117	      0.98662241	     25.23870894	     14.16966936	    -21.98749385	     18.54144646	      0.32360929	      6.06081627	    -19.62342140	    -17.49039920	    -12.06234903	     84.39060401	      1.47289390	    -10.53787589
     15.00666667	      0.23809507	    -12.75824230	     -1.85221782	      2.35988155	      0.90997194	      0.98654631	     25.06821915	     14.53951966	    -22.62644376	     22.00654766	      0.38408671	      6.18862022	    -18.06372696	    -18.32093571	    -11.43675296	     88.50367605	      1.54468055	     -9.72105509
     15.01333333	      0.59900028	    -13.61340369	     -2.37330805	      2.35823047	      0.90500490	      0.98657758	     24.68112919	     15.10103960	    -22.90854649	     25.41927341	      0.44365001	      6.58461330	    -16.62147324	    -19.25883203	    -11.03979094	     92.41314555	      1.61291366	     -8.83387641
     15.02000000	      0.76954175	    -14.39099208	     -2.97595095	      2.35630358	      0.90004135	      0.98664103	     24.40656629	     15.63414014	    -22.91257665	     28.77957834	      0.50229840	      7.37760965	    -14.81882592	    -20.12464833	    -10.53447052	     96.17705628	      1.67860630	     -7.93110652
     15.02666667	      0.70819701	    -15.00328531	     -3.67124859	      2.35407128	      0.89523212	      0.98681136	     24.25896949	     16.08285742	    -22.60158451	     32.02420055	      0.55892774	      8.59186873	    -12.56475827	    -20.81910467	     -9.86737544	     99.76602507	      1.74124562	     -7.05549450
     15.03333333	      0.40836205	    -15.40034593	     -4.43015568	      2.35155776	      0.89072354	      0.98711417	     24.21509112	     16.41178174	    -22.00200246	     35.07837971	      0.61223322	     10.20134910	     -9.81183827	    -21.28015047	     -8.98357361	    103.13541827	      1.80005262	     -6.23166664
     15.04000000	     -0.00471768	    -15.53824501	     -5.17739524	      2.34879826	      0.88670972	      0.98747779	     24.11320385	     16.56445727	    -21.15456228	     37.86495929	      0.66086821	     12.15302902	     -6.66164419	    -21.43979555	     -7.85932815	    106.23219562	      1.85410159	     -5.45603982
     15.04666667	     -0.65409511	    -15.38384656	     -5.84874487	      2.34573510	      0.88317125	      0.98789778	     24.06878643	     16.51528719	    -20.11037560	     40.28319415	      0.70307437	     14.35720630	     -2.90511726	    -21.29486726	     -6.44238251	    109.05139487	      1.90330589	     -4.93155014
     15.05333333	     -1.43047983	    -15.00657873	     -6.40604378	      2.34268743	      0.88020017	      0.98837088	     23.91818823	     16.29127872	    -18.99769082	     42.28131999	      0.73794825	     16.68612887	      1.23337547	    -20.86190547	     -4.80282969	    111.47666195	      1.94563479	     -4.35805220
     15.06000000	     -2.12290293	    -14.39047711	     -6.74898811	      2.33962141	      0.87803265	      0.98871566	     23.43511860	     15.82731957	    -17.84758801	     43.81235884	      0.76466991	     19.06430380	      5.52316348	    -20.08033153	     -3.02300816	    113.46057119	      1.98026054	     -3.99407981
     15.06666667	     -2.63538561	    -13.64673835	     -6.79604230	      2.33673302	      0.87675721	      0.98887511	     22.48975015	     15.17703433	    -16.81783917	     44.80943940	      0.78207225	     21.34522084	      9.78063618	    -19.05609146	     -1.14329605	    114.95051906	      2.00626503	     -3.73049916
     15.07333333	     -2.93548987	    -12.85509205	     -6.60777963	      2.33434701	      0.87639119	      0.98892613	     20.98641197	     14.42115885	    -15.94028458	     45.21445273	      0.78914107	     23.43670111	     13.79027618	    -17.87645081	      0.67099196	    115.87577399	      2.02241378	     -3.52087903
     15.08000000	     -3.50810771	    -12.01071618	     -6.30874432	      2.33236332	      0.87627235	      0.98906303	     19.50446750	     13.64189003	    -15.15436284	     45.09979023	      0.78713983	     25.20415581	     18.05414631	    -16.62083826	      2.39192698	    116.32334015	      2.03022528	     -3.35652294
     15.08666667	     -3.38627740	    -11.13522022	     -5.62147756	      2.33110041	      0.87763628	      0.98894640	     16.94654224	     12.68874940	    -14.68916223	     44.36591451	      0.77433128	     26.57138452	     21.38944223	    -15.16669009	      3.95977901	    116.12385293	      2.02674357	     -3.18822409
     15.09333333	     -3.32868434	    -10.20538419	     -4.73687192	      2.33042074	      0.87942612	      0.98880652	     14.20781707	     11.68155958	    -14.49288923	     43.13607077	      0.75286646	     27.42171746	     24.61427177	    -13.58287591	      5.39764296	    115.42501389	      2.01454653	     -2.99941702
     15.10000000	     -3.25949848	     -9.21207288	     -3.68970761	      2.33034896	      0.88165362	      0.98870173	     11.22503285	     10.65195815	    -14.52224550	     41.44224073	      0.72330355	     27.75285671	     27.57036471	    -11.88884790	      6.62701501	    114.23032378	      1.99369526	     -2.82748756
     15.10666667	     -3.03254890	     -8.16745485	     -2.41939553	      2.33088139	      0.88444494	      0.98855702	      7.85220468	      9.61693049	    -14.90266517	     39.29047801	      0.68574821	     27.39200295	     30.06664153	    -10.07026545	      7.68389265	    112.56448008	      1.96462080	     -2.50755571
     15.11333333	     -2.64681500	     -7.04107856	     -1.15015116	      2.33201237	      0.88776256	      0.98865545	      4.12126670	      8.64761008	    -15.34051990	     36.74853345	      0.64138290	     26.41041337	     32.00062636	     -8.26564885	      8.36189103	    110.42735056	      1.92732085	     -2.05038056
     15.12000000	     -2.19607676	     -5.78745520	     -0.03000182	      2.33355540	      0.89146843	      0.98912882	      0.20950345	      7.72864552	    -15.62424599	     33.92877641	      0.59216886	     24.70105354	     33.48283910	     -6.52246898	      8.56025331	    107.85950126	      1.88250343	     -1.55151914
     15.12666667	     -2.23662234	     -4.48817074	      1.06602656	      2.33541680	      0.89460579	      0.98965979	     -3.18342364	      6.84540981	    -16.13044588	     31.04975289	      0.54192042	     22.34068309	     35.24778252	     -4.76119832	      8.56274981	    105.01712044	      1.83289452	     -1.01045797
     15.13333333	     -2.56930497	     -3.20237380	      2.12069147	      2.33750303	      0.89744657	      0.99028320	     -6.22717603	      6.05666247	    -16.74720070	     28.14767923	      0.49126968	     19.32462499	     37.07414154	     -3.08857624	      8.33359539	    101.87918573	      1.77812723	     -0.39762445
     15.14000000	     -3.30696640	     -1.97769781	      3.06506538	      2.33977043	      0.89984464	      0.99101720	     -8.73791342	      5.35788903	    -17.40924067	     25.34988126	      0.44243889	     15.76769440	     39.10328898	     -1.58320687	      7.83648153	     98.47054356	      1.71863520	      0.09838410
     15.14666667	     -3.57698213	     -0.65767502	      3.71381806	      2.34238620	      0.90297758	      0.99218133	    -11.70161310	      4.59777432	    -17.89834814	     22.53844393	      0.39337005	     11.62721743	     40.25007753	     -0.38030324	      6.75183964	     94.67359774	      1.65236600	      0.85339689
     15.15333333	     -4.27425932	      0.49831782	      4.33987832	      2.34508621	      0.90553947	      0.99325286	    -14.01489042	      3.95736869	    -18.59868999	     19.97862240	      0.34869274	      7.14762832	     41.69383255	      0.61317810	      5.54015018	     90.65877301	      1.58229408	      1.52255126
     15.16000000	     -5.02714911	      1.60421772	      4.81072259	      2.34788430	      0.90815550	      0.99435342	    -16.06629759	      3.30706055	    -19.28919385	     17.67801500	      0.30853957	      2.45583023	     42.94638891	      1.38011894	      4.00013571	     86.33599315	      1.50684734	      2.18030382
     15.16666667	     -5.67190217	      2.66944016	      5.08493791	      2.35065434	      0.91100082	      0.99554017	    -17.98901834	      2.60656682	    -20.01504576	     15.71682401	      0.27431033	     -2.26674690	     43.83455799	      1.86979854	      2.07818319	     81.71694898	      1.42622981	      2.86065157
